<svg id="visual" viewBox="0 0 900 600" width="900" height="600" xmlns="http://www.w3.org/2000/svg" xmlns:xlink="http://www.w3.org/1999/xlink" version="1.1"><rect x="0" y="0" width="900" height="600" fill="#EEEEEE"></rect><path d="M0 486L21.5 491.7C43 497.3 86 508.7 128.8 513.8C171.7 519 214.3 518 257.2 511.2C300 504.3 343 491.7 385.8 485.3C428.7 479 471.3 479 514.2 486.8C557 494.7 600 510.3 642.8 520.5C685.7 530.7 728.3 535.3 771.2 527.2C814 519 857 498 878.5 487.5L900 477L900 601L878.5 601C857 601 814 601 771.2 601C728.3 601 685.7 601 642.8 601C600 601 557 601 514.2 601C471.3 601 428.7 601 385.8 601C343 601 300 601 257.2 601C214.3 601 171.7 601 128.8 601C86 601 43 601 21.5 601L0 601Z" fill="#8B9A46" stroke-linecap="round" stroke-linejoin="miter"></path></svg>